{"title":"World War Z [2013, BDRip-AVC 1080p] | 3D-Video","uid":8914498,"size":10407535013,"categoryP":"video","categoryS":"hd___movies","magnet":"?xt=urn:btih:ea4f611d7bedd8d4b2159babf84e0f597b7310e3&amp;dn=World+War+Z+%5B2013%2C+BDRip-AVC+1080p%5D+%7C+3D-Video&amp;tr=udp%3A%2F%2Ftracker.openbittorrent.com%3A80&amp;tr=udp%3A%2F%2Fopen.demonii.com%3A1337&amp;tr=udp%3A%2F%2Ftracker.coppersurfer.tk%3A6969&amp;tr=udp%3A%2F%2Fexodus.desync.com%3A6969","seeders":0,"leechers":1,"uploader":"yfjfrj","files":-1,"time":1379106686,"description":"General\nUnique ID                                : 220694660285595000338952174642253822121 (0xA6083ED7D86CD26E834BF5E250B478A9)\nComplete name                            : C:UsersivanDesktopWorld.War.Z 2013.Theatrical.Cut.BDRip.1080p.mkv\nFormat                                   : Matroska\nFormat version                           : Version 4 / Version 2\nFile size                                : 9.69 GiB\nDuration                                 : 1h 56mn\nOverall bit rate                         : 12.0 Mbps\nMovie name                               : CMEGRoup\nEncoded date                             : UTC 2013-09-11 13:24:01\nWriting application                      : mkvmerge v6.1.0 ('Old Devil') built on Mar  2 2013 14:32:37\nWriting library                          : libebml v1.3.0 + libmatroska v1.4.0\nAttachment                               : Yes / Yes\n\nVideo\nID                                       : 1\nFormat                                   : AVC\nFormat/Info                              : Advanced Video Codec\nFormat profile                           : &lt;a class=&quot;__cf_email__&quot; href=&quot;/cdn-cgi/l/email-protection&quot; data-cfemail=&quot;90d8f9f7f8d0dca4bea1&quot;&gt;[email&amp;#160;protected]&lt;/a&gt;&lt;script cf-hash='f9e31' type=&quot;text/javascript&quot;&gt;\n/* &lt;![CDATA[ */!function(){try{var t=&quot;currentScript&quot;in document?document.currentScript:function(){for(var t=document.getElementsByTagName(&quot;script&quot;),e=t.length;e--;)if(t[e].getAttribute(&quot;cf-hash&quot;))return t[e]}();if(t&amp;&amp;t.previousSibling){var e,r,n,i,c=t.previousSibling,a=c.getAttribute(&quot;data-cfemail&quot;);if(a){for(e=&quot;&quot;,r=parseInt(a.substr(0,2),16),n=2;a.length-n;n+=2)i=parseInt(a.substr(n,2),16)^r,e+=String.fromCharCode(i);e=document.createTextNode(e),c.parentNode.replaceChild(e,c)}}}catch(u){}}();/* ]]&gt; */&lt;/script&gt;\nMultiView_Count                          : 2\nMultiView_Layout                         : Side by Side (left eye first)\nFormat settings, CABAC                   : Yes\nFormat settings, ReFrames                : 4 frames\nCodec ID                                 : V_MPEG4/ISO/AVC\nDuration                                 : 1h 56mn\nBit rate                                 : 10 000 Kbps\nWidth                                    : 1 920 pixels\nHeight                                   : 1 080 pixels\nDisplay aspect ratio                     : 16:9\nFrame rate mode                          : Constant\nFrame rate                               : 23.976 fps\nColor space                              : YUV\nChroma subsampling                       : 4:2:0\nBit depth                                : 8 bits\nScan type                                : Progressive\nBits/(Pixel*Frame)                       : 0.201\nStream size                              : 7.91 GiB (82%)\nTitle                                    : 3D Half Side by Side, Left first\nWriting library                          : x264 core 130 r2273 b3065e6\nEncoding settings                        : cabac=1 // deblock=1:-3:-3 / analyse=0x3:0x113 / me=umh / subme=10 / psy=1 / psy_rd=1.05:0.10 // me_range=48 / chroma_me=1 / trellis=2 / 8x8dct=1 / cqm=0 / deadzone=21,11 / fast_pskip=0 / chroma_qp_offset=-2 / threads=18 / lookahead_threads=1 / sliced_threads=0 / nr=0 / decimate=1 / interlaced=0 / bluray_compat=0 / constrained_intra=0 / bframes=6 / b_pyramid=2 / b_adapt=2 / b_bias=0 / direct=3 / weightb=1 / open_gop=0 / weightp=2 / keyint=250 / keyint_min=23 / scenecut=40 / intra_refresh=0 / rc_lookahead=40 / rc=2pass / mbtree=0 / bitrate=10000 / ratetol=2.0 / qcomp=0.70 / qpmin=0 / qpmax=69 / qpstep=4 / cplxblur=20.0 / qblur=0.5 / vbv_maxrate=35000 / vbv_bufsize=30000 / nal_hrd=none / ip_ratio=1.40 / pb_ratio=1.30 / aq=2:1.00\nDefault                                  : Yes\nForced                                   : No\n\nAudio #1\nID                                       : 2\nFormat                                   : AC-3\nFormat/Info                              : Audio Coding 3\nMode extension                           : CM (complete main)\nFormat settings, Endianness              : Big\nCodec ID                                 : A_AC3\nDuration                                 : 1h 56mn\nBit rate mode                            : Constant\nBit rate                                 : 448 Kbps\nChannel(s)                               : 6 channels\nChannel positions                        : Front: L C R, Side: L R, LFE\nSampling rate                            : 48.0 KHz\nBit depth                                : 16 bits\nCompression mode                         : Lossy\nStream size                              : 372 MiB (4%)\nLanguage                                 : Russian\nDefault                                  : Yes\nForced                                   : No\n\nAudio #2\nID                                       : 3\nFormat                                   : DTS\nFormat/Info                              : Digital Theater Systems\nMode                                     : 16\nFormat settings, Endianness              : Big\nCodec ID                                 : A_DTS\nDuration                                 : 1h 56mn\nBit rate mode                            : Constant\nBit rate                                 : 1 509 Kbps\nChannel(s)                               : 6 channels\nChannel positions                        : Front: L C R, Side: L R, LFE\nSampling rate                            : 48.0 KHz\nBit depth                                : 24 bits\nCompression mode                         : Lossy\nStream size                              : 1.22 GiB (13%)\nLanguage                                 : English\nDefault                                  : No\nForced                                   : No\n\nMenu\n00:00:00.000                             : :1 - 0:00:00\n00:05:05.180                             : :2 - 0:05:05\n00:13:04.659                             : :3 - 0:13:04\n00:20:31.188                             : :4 - 0:20:31\n00:27:02.579                             : :5 - 0:27:02\n00:32:38.039                             : :6 - 0:32:38\n00:39:35.331                             : :7 - 0:39:35\n00:49:06.152                             : :8 - 0:49:06\n00:55:22.027                             : :9 - 0:55:22\n01:01:41.239                             : :10 - 1:01:41\n01:09:18.654                             : :11 - 1:09:18\n01:17:03.035                             : :12 - 1:17:03\n01:22:09.842                             : :13 - 1:22:09\n01:27:51.558                             : :14 - 1:27:51\n01:36:41.587                             : :15 - 1:36:41\n01:45:14.099                             : :16 - 1:45:14\n01:48:46.645                             : :17 - 1:48:46\n","torrent":{"xt":"urn:btih:ea4f611d7bedd8d4b2159babf84e0f597b7310e3","amp;dn":"World+War+Z+%5B2013%2C+BDRip-AVC+1080p%5D+%7C+3D-Video","amp;tr":["udp%3A%2F%2Ftracker.openbittorrent.com%3A80","udp%3A%2F%2Fopen.demonii.com%3A1337","udp%3A%2F%2Ftracker.coppersurfer.tk%3A6969","udp%3A%2F%2Fexodus.desync.com%3A6969"],"infoHash":"ea4f611d7bedd8d4b2159babf84e0f597b7310e3","infoHashBuffer":{"type":"Buffer","data":[234,79,97,29,123,237,216,212,178,21,155,171,248,78,15,89,123,115,16,227]},"announce":[],"urlList":[]}}